# xmcd
#
# Track frame offsets:
# 150
# 12087
# 33165
# 48630
# 63972
# 83500
# 98038
# 123612
# 142314
# 160663
# 176645
# 192395
# 211846
# 232096
# 246167
# 266188
# 288970
# 312262
# 335093
#
# Disc length: 4750 seconds
#
#
# Revision: 0
# Processed by: cddbd v1.5.2PL0 Copyright (c) Steve Scherf et al.
# Submitted via: FreeRIP 2.53 
#
DISCID=16128c13
DTITLE=Diverse - 6e Festival de Boogie Woogie de la Roquebrou 2004
DYEAR=2004
DGENRE=Boogie Woogie
TTITLE0=Dancin' The Boogie - Silvan Zingg
TTITLE1=Rockhouse - Joachim Palden
TTITLE2=Dive Bomber - Jean-Pierre Bertrand
TTITLE3=Jump and Jive - Chris Conz
TTITLE4=Keep Your Hands Off Her - Martin Schmitt
TTITLE5=Ain't Nobody Here But Us Chickens - Julian Phillips
TTITLE6=Specially for Pete Johnson - Christoph Steinbach
TTITLE7=3/4 6/8 Boogie - Claude Bolling
TTITLE8=Jean-Paul and Joachim Boogie - Jean-Paul Amouroux and Joachim Palden
TTITLE9=Jean-Pierre and Martin Boogie - Jean-Pierre Bertrand and Martin Schmitt
TTITLE10=Sweet Georgia Brown - Pierre Calligaris and Jean-Paul Amouroux
TTITLE11=The Sheik of Araby - Pierre Calligaris and Jean-Paul Amouroux
TTITLE12=Three Crazy Pianos - Silvan Zingg and JP Amouroux and Joachim Palden
TTITLE13=Boogie for Washboard and Piano - Gilbert Leroux
TTITLE14=Muskrat Ramble - Irakli and Boss
TTITLE15=Rejane Boogie - Jean-Pierre Bertrand
TTITLE16=Sweet Home Chicago - Bob Chisolm
TTITLE17=Pink Champagne - Deejha Marie
TTITLE18=Route 66 - Deejha Marie
EXTD=BW 15155
EXTT0=
EXTT1=
EXTT2=
EXTT3=
EXTT4=
EXTT5=
EXTT6=
EXTT7=
EXTT8=
EXTT9=
EXTT10=
EXTT11=
EXTT12=
EXTT13=
EXTT14=
EXTT15=
EXTT16=
EXTT17=
EXTT18=
PLAYORDER=
